name ./resultDataOpenSim/trcMotMarkerGrf/sub10/grf-14-04.mot
datacolumns 19
datarows 27
range 1.46800000 1.57200000
endheader

                time	     ground_force_vx	     ground_force_vy	     ground_force_vz	     ground_force_px	     ground_force_py	     ground_force_pz	   l_ground_force_vx	   l_ground_force_vy	   l_ground_force_vz	   l_ground_force_px	   l_ground_force_py	   l_ground_force_pz	     ground_torque_x	     ground_torque_y	     ground_torque_z	   l_ground_torque_x	   l_ground_torque_y	   l_ground_torque_z	
          1.46800000	        -15.63971750	        473.61600261	        -14.63203953	          0.93119150	          0.00000000	         -0.03411916	          0.00000000	          0.00000000	          0.00000000	          0.00000000	          0.00000000	          0.00000000	          0.00000000	          3.79482957	          0.00000000	          0.00000000	          0.00000000	          0.00000000	
          1.47200000	        -14.50924424	        470.31642893	        -12.89896609	          0.93128762	          0.00000000	         -0.03443647	          0.00000000	          0.00000000	          0.00000000	          0.00000000	          0.00000000	          0.00000000	          0.00000000	          3.84257767	          0.00000000	          0.00000000	          0.00000000	          0.00000000	
          1.47600000	        -13.66890531	        467.19576935	        -11.54878574	          0.93142477	          0.00000000	         -0.03474397	          0.00000000	          0.00000000	          0.00000000	          0.00000000	          0.00000000	          0.00000000	          0.00000000	          3.87542001	          0.00000000	          0.00000000	          0.00000000	          0.00000000	
          1.48000000	        -12.93744367	        464.25431037	        -10.65636759	          0.93156592	          0.00000000	         -0.03502550	          0.00000000	          0.00000000	          0.00000000	          0.00000000	          0.00000000	          0.00000000	          0.00000000	          3.89707868	          0.00000000	          0.00000000	          0.00000000	          0.00000000	
          1.48400000	        -12.11541165	        461.51167019	        -10.21859346	          0.93168188	          0.00000000	         -0.03526990	          0.00000000	          0.00000000	          0.00000000	          0.00000000	          0.00000000	          0.00000000	          0.00000000	          3.91234560	          0.00000000	          0.00000000	          0.00000000	          0.00000000	
          1.48800000	        -11.03241068	        458.99342370	        -10.16406703	          0.93174880	          0.00000000	         -0.03548028	          0.00000000	          0.00000000	          0.00000000	          0.00000000	          0.00000000	          0.00000000	          0.00000000	          3.92547262	          0.00000000	          0.00000000	          0.00000000	          0.00000000	
          1.49200000	         -9.59184369	        456.73150556	        -10.37326714	          0.93175886	          0.00000000	         -0.03566687	          0.00000000	          0.00000000	          0.00000000	          0.00000000	          0.00000000	          0.00000000	          0.00000000	          3.93891999	          0.00000000	          0.00000000	          0.00000000	          0.00000000	
          1.49600000	         -7.79661092	        454.77736352	        -10.70189520	          0.93172388	          0.00000000	         -0.03583989	          0.00000000	          0.00000000	          0.00000000	          0.00000000	          0.00000000	          0.00000000	          0.00000000	          3.95308213	          0.00000000	          0.00000000	          0.00000000	          0.00000000	
          1.50000000	         -5.74481460	        453.20424281	        -11.00550984	          0.93163863	          0.00000000	         -0.03601584	          0.00000000	          0.00000000	          0.00000000	          0.00000000	          0.00000000	          0.00000000	          0.00000000	          3.96694344	          0.00000000	          0.00000000	          0.00000000	          0.00000000	
          1.50400000	         -3.59718896	        452.08535402	        -11.16599987	          0.93151227	          0.00000000	         -0.03620684	          0.00000000	          0.00000000	          0.00000000	          0.00000000	          0.00000000	          0.00000000	          0.00000000	          3.97904366	          0.00000000	          0.00000000	          0.00000000	          0.00000000	
          1.50800000	         -1.53075545	        451.46576803	        -11.11348434	          0.93137836	          0.00000000	         -0.03641980	          0.00000000	          0.00000000	          0.00000000	          0.00000000	          0.00000000	          0.00000000	          0.00000000	          3.98810213	          0.00000000	          0.00000000	          0.00000000	          0.00000000	
          1.51200000	          0.31086781	        451.36114647	        -10.83915543	          0.93124656	          0.00000000	         -0.03665631	          0.00000000	          0.00000000	          0.00000000	          0.00000000	          0.00000000	          0.00000000	          0.00000000	          3.99316611	          0.00000000	          0.00000000	          0.00000000	          0.00000000	
          1.51600000	          1.85689981	        451.77404693	        -10.39500418	          0.93113887	          0.00000000	         -0.03690787	          0.00000000	          0.00000000	          0.00000000	          0.00000000	          0.00000000	          0.00000000	          0.00000000	          3.99368128	          0.00000000	          0.00000000	          0.00000000	          0.00000000	
          1.52000000	          3.12362891	        452.69827286	         -9.87956522	          0.93108006	          0.00000000	         -0.03716307	          0.00000000	          0.00000000	          0.00000000	          0.00000000	          0.00000000	          0.00000000	          0.00000000	          3.98986592	          0.00000000	          0.00000000	          0.00000000	          0.00000000	
          1.52400000	          4.20573617	        454.11911909	         -9.41597593	          0.93106658	          0.00000000	         -0.03740850	          0.00000000	          0.00000000	          0.00000000	          0.00000000	          0.00000000	          0.00000000	          0.00000000	          3.98328512	          0.00000000	          0.00000000	          0.00000000	          0.00000000	
          1.52800000	          5.25151132	        456.02552493	         -9.12500373	          0.93107878	          0.00000000	         -0.03763229	          0.00000000	          0.00000000	          0.00000000	          0.00000000	          0.00000000	          0.00000000	          0.00000000	          3.97712172	          0.00000000	          0.00000000	          0.00000000	          0.00000000	
          1.53200000	          6.42807055	        458.42476371	         -9.09779540	          0.93107670	          0.00000000	         -0.03782909	          0.00000000	          0.00000000	          0.00000000	          0.00000000	          0.00000000	          0.00000000	          0.00000000	          3.97570759	          0.00000000	          0.00000000	          0.00000000	          0.00000000	
          1.53600000	          7.88347172	        461.33670633	         -9.37795460	          0.93102775	          0.00000000	         -0.03800005	          0.00000000	          0.00000000	          0.00000000	          0.00000000	          0.00000000	          0.00000000	          0.00000000	          3.98336091	          0.00000000	          0.00000000	          0.00000000	          0.00000000	
          1.54000000	          9.71195333	        464.76899950	         -9.95744078	          0.93092907	          0.00000000	         -0.03814967	          0.00000000	          0.00000000	          0.00000000	          0.00000000	          0.00000000	          0.00000000	          0.00000000	          4.00307161	          0.00000000	          0.00000000	          0.00000000	          0.00000000	
          1.54400000	         11.93229647	        468.70657273	        -10.78335544	          0.93078101	          0.00000000	         -0.03828467	          0.00000000	          0.00000000	          0.00000000	          0.00000000	          0.00000000	          0.00000000	          0.00000000	          4.03569940	          0.00000000	          0.00000000	          0.00000000	          0.00000000	
          1.54800000	         14.48902329	        473.13175832	        -11.76732130	          0.93058351	          0.00000000	         -0.03841387	          0.00000000	          0.00000000	          0.00000000	          0.00000000	          0.00000000	          0.00000000	          0.00000000	          4.08004098	          0.00000000	          0.00000000	          0.00000000	          0.00000000	
          1.55200000	         17.27731560	        478.05208253	        -12.79435799	          0.93034859	          0.00000000	         -0.03854444	          0.00000000	          0.00000000	          0.00000000	          0.00000000	          0.00000000	          0.00000000	          0.00000000	          4.13361513	          0.00000000	          0.00000000	          0.00000000	          0.00000000	
          1.55600000	         20.17796648	        483.50809827	        -13.73821891	          0.93009827	          0.00000000	         -0.03868112	          0.00000000	          0.00000000	          0.00000000	          0.00000000	          0.00000000	          0.00000000	          0.00000000	          4.19364349	          0.00000000	          0.00000000	          0.00000000	          0.00000000	
          1.56000000	         23.08824421	        489.56244497	        -14.48596905	          0.92986228	          0.00000000	         -0.03882935	          0.00000000	          0.00000000	          0.00000000	          0.00000000	          0.00000000	          0.00000000	          0.00000000	          4.25770337	          0.00000000	          0.00000000	          0.00000000	          0.00000000	
          1.56400000	         25.94509884	        496.28186606	        -14.96309361	          0.92966371	          0.00000000	         -0.03899386	          0.00000000	          0.00000000	          0.00000000	          0.00000000	          0.00000000	          0.00000000	          0.00000000	          4.32385604	          0.00000000	          0.00000000	          0.00000000	          0.00000000	
          1.56800000	         28.73752508	        503.71443029	        -15.15033603	          0.92949712	          0.00000000	         -0.03917419	          0.00000000	          0.00000000	          0.00000000	          0.00000000	          0.00000000	          0.00000000	          0.00000000	          4.39046162	          0.00000000	          0.00000000	          0.00000000	          0.00000000	
          1.57200000	         31.50667107	        511.87695684	        -15.08896185	          0.92934253	          0.00000000	         -0.03936382	          0.00000000	          0.00000000	          0.00000000	          0.00000000	          0.00000000	          0.00000000	          0.00000000	          4.45608207	          0.00000000	          0.00000000	          0.00000000	          0.00000000	
